<?xml version="1.0" encoding="UTF-8"?>
<svg xmlns="http://www.w3.org/2000/svg" version="1.1" viewBox="0 0 297.9 85.6">
  <!-- Generator: Adobe Illustrator 30.2.1, SVG Export Plug-In . SVG Version: 2.1.1 Build 1)  -->
  <defs>
    <style>
      .st0 {
        fill: none;
      }

      .st1 {
        fill: #ba0c2f;
      }

      .st2 {
        fill: #236192;
      }

      .st3 {
        fill: #fff;
      }

      .st4 {
        fill: #719949;
      }

      .st5 {
        display: none;
      }
    </style>
  </defs>
  <g id="Background" class="st5">
    <rect class="st3" x="145.5" y="41.4" width="176.3" height="67.9"/>
  </g>
  <g id="Artwork">
    <g>
      <g>
        <g>
          <path d="M101.3,26.8c-3.1,1.3-6.4,2.2-9.8,2.2-8.1,0-13.1-4.7-13.1-11.8s4.7-12,14-12,4.9.4,7.4,1.2v5.1c-1-.6-3.3-2-6.7-2-5.1,0-8.6,3.2-8.6,7.7s2.7,7.8,7.9,7.8,2.7-.4,3.4-.7v-4.3c0,0-5.3,0-5.3,0l2.3-4.1h8.6v10.9Z"/>
          <path d="M109.4,28.4h-5.9V5.8h5.9v22.7Z"/>
          <path d="M126.2,28.4h-13.7V5.8h5.9v18.1h10.4l-2.6,4.5Z"/>
          <path d="M129.5,5.8h9.6c3.2,0,7.1,1.5,7.1,5.9s-1.3,3.9-3.4,4.9c.5.2,1.3.5,2,1,1.4.9,2.3,2.6,2.3,4.4s-.9,3.7-2.5,4.9c-1.9,1.5-4,1.5-5.7,1.5h-9.4V5.8ZM135.2,17.9l2.1-3c.5,0,1,0,1.5-.1,1.4-.4,2.1-1.3,2.1-2.4,0-2.1-1.9-2.4-3.4-2.4h-2.2v7.9ZM135.2,24.3h2.3c2.2,0,3.6-.9,3.6-3s-2.2-3-4.5-3h-1.5v5.9Z"/>
          <path d="M170.3,28.4h-6.3l-1.5-4.5h-8.1l-1.6,4.5h-5.9l8.9-22.7h5.7l8.7,22.7ZM161.3,20.4l-2.4-7.2c-.2-.5-.2-.7-.3-1.3-.2.7-.2.8-.3,1.1l-2.6,7.3h5.7Z"/>
          <path d="M191.7,28.4h-6.5l-5.8-9.6c-1.1,0-1.3,0-2.6,0v9.5h-5.8V5.8h10.3c3.5,0,7.3,1.9,7.3,6.3s-.2,1.8-.6,2.6c-.8,1.8-2.2,2.6-2.9,3l6.5,10.7ZM176.8,18.4l2.2-3.2c.7,0,1.2,0,1.7-.2,1.2-.3,2-1.3,2-2.6s-.5-1.7-1-2c-.7-.5-1.8-.5-3.1-.5h-1.9v8.5Z"/>
          <path d="M206.9,28.4c-.8.2-2.2.6-4.7.6-8.1,0-12.9-5.1-12.9-11.7s4.5-12.2,13.3-12.2,4.5.5,6.1.9v5c-.8-.5-2.7-1.7-5.4-1.7-5,0-7.9,3.5-7.9,7.6s3.1,7.8,8.3,7.8,4-.5,5.9-1.2l-2.8,4.7Z"/>
          <path d="M221.8,29c-7.9,0-12.6-5.1-12.6-11.9s4.7-11.9,12.4-11.9,12.4,5.4,12.4,11.8-4.3,12-12.2,12ZM227.8,17.2c0-4.4-2.3-7.6-6.1-7.6s-6.2,3.2-6.2,7.5,2.3,7.5,6.2,7.5,6.1-3.9,6.1-7.4Z"/>
          <path d="M91.7,61.2h-5.2l-9-22.7h6.5l5.4,15.6,5.6-15.6h5.9l-9.1,22.7Z"/>
          <path d="M115.6,61.2h-13.8v-22.7h14.7v4.5h-8.8v4.3h7.5v4.4h-7.5v4.9h10.5l-2.6,4.5Z"/>
          <path d="M132.9,61.2h-13.8v-22.7h14.7v4.5h-8.8v4.3h7.5v4.4h-7.5v4.9h10.5l-2.6,4.5Z"/>
          <path d="M136.3,38.5h10.2c6.3,0,11.2,4,11.2,11.1s-1.2,6.2-3.2,8.3c-3.1,3.1-6.7,3.2-9.3,3.2h-8.9v-22.7ZM142.2,56.8h1.7c1.2,0,2.6,0,3.9-.6,2.9-1.3,3.7-4.1,3.7-6.4,0-4.3-2.7-6.8-6.8-6.9h-2.4v13.9Z"/>
          <path d="M172.8,61.2h-13.8v-22.7h14.7v4.5h-8.8v4.3h7.5v4.4h-7.5v4.9h10.5l-2.6,4.5Z"/>
          <path d="M196.8,61.2h-6.5l-5.8-9.6c-1.1,0-1.3,0-2.6,0v9.5h-5.8v-22.7h10.3c3.5,0,7.3,1.9,7.3,6.3s-.2,1.8-.6,2.6c-.8,1.8-2.2,2.6-2.9,3l6.5,10.7ZM182,51.2l2.2-3.2c.7,0,1.2,0,1.7-.2,1.2-.3,2-1.3,2-2.6s-.5-1.7-1-2c-.7-.5-1.8-.5-3.1-.5h-1.9v8.5Z"/>
          <path d="M206,52h-9.5l2.4-3.5h9.5l-2.4,3.5Z"/>
          <path d="M231.3,61.2h-6.5l-5.8-9.6c-1.1,0-1.3,0-2.6,0v9.5h-5.8v-22.7h10.3c3.5,0,7.3,1.9,7.3,6.3s-.2,1.8-.6,2.6c-.8,1.8-2.2,2.6-2.9,3l6.5,10.7ZM216.5,51.2l2.2-3.2c.7,0,1.2,0,1.7-.2,1.2-.3,2-1.3,2-2.6s-.5-1.7-1-2c-.7-.5-1.8-.5-3.1-.5h-1.9v8.5Z"/>
          <path d="M242.1,61.8c-7.9,0-12.6-5.1-12.6-11.9s4.7-11.9,12.4-11.9,12.4,5.4,12.4,11.8-4.3,12-12.2,12ZM248.1,49.9c0-4.4-2.3-7.6-6.1-7.6s-6.2,3.2-6.2,7.5,2.3,7.5,6.2,7.5,6.1-3.9,6.1-7.4Z"/>
          <path d="M268.1,61.8c-7.9,0-12.6-5.1-12.6-11.9s4.7-11.9,12.4-11.9,12.4,5.4,12.4,11.8-4.3,12-12.2,12ZM274,49.9c0-4.4-2.3-7.6-6.1-7.6s-6.2,3.2-6.2,7.5,2.3,7.5,6.2,7.5,6.1-3.9,6.1-7.4Z"/>
          <path d="M291.5,61.2h-5.9v-18.2h-6.5v-4.5h18.8v4.5h-6.4v18.2Z"/>
          <rect x="77.6" y="32.5" width="220.3" height=".9"/>
        </g>
        <g>
          <path class="st2" d="M48.7,46.8c-3.8,5.5-9.3,9.6-15.6,11.8,8.5-.3,16.9-2.6,24.3-6.8l-8.7-5Z"/>
          <path class="st4" d="M38.2.7c-.8-.2-1.6-.5-2.4-.7.2,0,.3.1.5.2,15.8,7.4,22.6,26.3,15.1,42.1l13.3,7.7C71,29.1,59.1,7,38.2.7"/>
          <path class="st2" d="M61.6,54.8c-14.3,10-34,6.4-44-8l-13.3,7.7c14.9,15.9,40,16.7,55.9,1.8.6-.6,1.2-1.2,1.8-1.8-.1,0-.3.2-.4.3"/>
          <path class="st1" d="M12.5,22.9c-4,7.5-6.1,15.9-6.3,24.4l8.7-5c-2.8-6-3.7-12.8-2.5-19.4"/>
          <path class="st1" d="M1,47.5c.2.8.4,1.6.7,2.4,0-.2,0-.3,0-.5C.2,32.1,13.1,16.8,30.5,15.3V0C9.3,5-3.9,26.3,1,47.5"/>
          <path class="st4" d="M35.8,5.3v10.1c6.7.6,13,3.2,18,7.6-4.5-7.2-10.7-13.3-18-17.6"/>
          <path class="st2" d="M62.4,60h-1.3v3.3h-.7v-3.3h-1.3v-.7h3.2v.7ZM66.2,59.3h.9v3.9h-.7v-2.9l-1.1,2.4h-.5l-1.1-2.4v2.9h-.7v-3.9h.9l1.2,2.5,1.2-2.5Z"/>
        </g>
      </g>
      <g>
        <path d="M159,82.7v-10.8h5.3c.7,0,1.4.1,1.9.4.5.3.9.7,1.1,1.2.2.5.4,1.1.4,1.7s-.1,1.2-.4,1.7c-.3.5-.7.9-1.2,1.2-.5.3-1.1.4-1.8.4h-3.8v4.1h-1.5ZM160.5,77.3h3.7c.6,0,1.1-.2,1.4-.5.4-.4.5-.9.5-1.5s0-.8-.2-1.1c-.1-.3-.4-.5-.6-.7-.3-.2-.6-.2-1.1-.2h-3.7v4.1Z"/>
        <path d="M172.4,82.9c-.8,0-1.5-.2-2.1-.5s-1-.8-1.3-1.4c-.3-.6-.4-1.4-.4-2.4s.1-1.8.4-2.4c.3-.6.7-1.1,1.3-1.4.6-.3,1.3-.5,2.1-.5s1.5.2,2.1.5c.6.3,1,.8,1.3,1.4.3.6.4,1.4.4,2.4s-.1,1.8-.4,2.4c-.3.6-.7,1.1-1.3,1.4s-1.3.5-2.1.5ZM172.4,81.7c.5,0,1-.1,1.3-.3s.6-.5.8-1c.2-.4.3-1,.3-1.7v-.3c0-.7,0-1.3-.3-1.7-.2-.4-.5-.8-.8-1-.4-.2-.8-.3-1.3-.3s-1,.1-1.3.3c-.4.2-.6.5-.8,1-.2.4-.3,1-.3,1.7v.3c0,.7,0,1.2.3,1.7.2.4.4.8.8,1s.8.3,1.3.3Z"/>
        <path d="M179.4,82.7l-2.5-8.3h1.4l1.3,4.5c0,.2.1.5.2.7s.1.5.2.7c0,.2,0,.4.1.5h0c0-.2,0-.4.1-.7,0-.3.1-.5.2-.7s0-.4.1-.5l1.1-4.5h1.5l1.1,4.5c0,.2,0,.4.1.6,0,.2.1.5.2.7,0,.2,0,.4.1.6h0c0-.2,0-.4.1-.6,0-.2.1-.5.2-.7,0-.2.1-.4.2-.6l1.2-4.5h1.3l-2.5,8.3h-1.4l-1.1-4.3c0-.2,0-.4-.2-.7,0-.3-.1-.5-.2-.8,0-.3-.1-.5-.1-.7h0c0,.2,0,.4-.1.6,0,.2-.1.5-.2.8s-.1.6-.2.9l-1.1,4.3h-1.4Z"/>
        <path d="M192.4,82.9c-.8,0-1.5-.2-2.1-.5-.6-.3-1-.8-1.3-1.4-.3-.6-.4-1.4-.4-2.4s.1-1.8.4-2.4c.3-.6.7-1.1,1.3-1.4.6-.3,1.3-.5,2.1-.5s1.4.1,1.9.4c.5.3.9.7,1.2,1.3.3.6.4,1.3.4,2.2v.7h-5.9c0,.7.1,1.2.3,1.6.2.4.4.7.8.9s.8.3,1.3.3.7,0,.9-.1c.3,0,.5-.2.7-.4.2-.2.3-.4.4-.6,0-.2.1-.5.2-.8h1.3c0,.4,0,.8-.3,1.2-.2.4-.4.7-.7.9-.3.3-.7.5-1.1.6-.4.1-.9.2-1.5.2ZM190.1,77.9h4.5c0-.5,0-.8-.2-1.2-.1-.3-.3-.6-.4-.8-.2-.2-.4-.3-.7-.4s-.5-.1-.9-.1c-.5,0-.9,0-1.2.3-.3.2-.6.4-.8.8-.2.4-.3.8-.3,1.4Z"/>
        <path d="M197.7,82.7v-8.3h1.1v1.4h.2c0-.3.2-.5.3-.7.1-.2.3-.4.6-.6.3-.2.6-.2.9-.2s.3,0,.4,0c.1,0,.2,0,.3,0v1.3h-.5c-.4,0-.7,0-.9.2-.3.1-.5.3-.6.5-.2.2-.3.5-.4.8,0,.3-.1.6-.1,1v4.6h-1.4Z"/>
        <path d="M206,82.9c-.8,0-1.5-.2-2.1-.5s-1-.8-1.3-1.4c-.3-.6-.4-1.4-.4-2.4s.1-1.8.4-2.4c.3-.6.7-1.1,1.3-1.4.6-.3,1.3-.5,2.1-.5s1.4.1,1.9.4c.5.3.9.7,1.2,1.3.3.6.4,1.3.4,2.2v.7h-5.9c0,.7.1,1.2.3,1.6.2.4.4.7.8.9.3.2.8.3,1.3.3s.7,0,.9-.1.5-.2.7-.4c.2-.2.3-.4.4-.6,0-.2.1-.5.2-.8h1.3c0,.4,0,.8-.3,1.2-.2.4-.4.7-.7.9-.3.3-.7.5-1.1.6-.4.1-.9.2-1.5.2ZM203.7,77.9h4.5c0-.5,0-.8-.2-1.2-.1-.3-.3-.6-.4-.8-.2-.2-.4-.3-.7-.4-.3,0-.5-.1-.9-.1-.5,0-.9,0-1.2.3-.3.2-.6.4-.8.8-.2.4-.3.8-.3,1.4Z"/>
        <path d="M214.1,82.9c-.7,0-1.3-.2-1.7-.5-.5-.3-.9-.8-1.1-1.4-.3-.6-.4-1.5-.4-2.5s.1-1.8.4-2.4c.3-.6.6-1.1,1.1-1.4.5-.3,1-.5,1.7-.5s.7,0,1,.1c.3,0,.6.2.8.4.2.2.5.4.7.7h0v-4.1h1.4v11.3h-1.1v-1.2h-.2c-.3.5-.6.8-1.1,1-.4.2-.9.3-1.5.3ZM214.5,81.7c.5,0,.9-.1,1.3-.3.3-.2.6-.6.7-1,.2-.4.2-1,.2-1.6v-.3c0-.6,0-1-.2-1.4-.1-.4-.3-.7-.5-.9-.2-.2-.4-.4-.7-.5-.3,0-.5-.1-.8-.1-.5,0-.9.1-1.3.3-.3.2-.6.5-.7,1-.2.4-.2,1-.2,1.7v.3c0,.7,0,1.3.3,1.7s.4.7.7.9c.3.2.7.3,1.2.3Z"/>
        <path d="M227.4,82.9c-.6,0-1.1-.1-1.5-.3-.4-.2-.8-.6-1.1-1h-.1v1.2h-1.2v-11.3h1.4v4.1h0c.2-.3.4-.5.7-.7.3-.2.5-.3.8-.4.3,0,.6-.1,1-.1.6,0,1.2.2,1.7.5.5.3.9.8,1.1,1.4.3.6.4,1.4.4,2.4s-.1,1.9-.4,2.5c-.3.6-.6,1.1-1.1,1.4-.5.3-1.1.5-1.8.5ZM227.1,81.7c.5,0,.9,0,1.2-.3.3-.2.6-.5.7-.9.2-.4.3-1,.3-1.7v-.3c0-.7,0-1.3-.2-1.7s-.4-.8-.7-1c-.3-.2-.7-.3-1.3-.3s-.6,0-.8.1-.5.3-.7.5c-.2.2-.4.5-.5.9-.1.4-.2.9-.2,1.4v.3c0,.6,0,1.2.2,1.6.2.4.4.8.7,1,.3.2.8.3,1.3.3Z"/>
        <path d="M233.1,85.6c-.3,0-.5,0-.7,0s-.3,0-.4,0v-1h.7c.3,0,.5,0,.7-.2.2-.1.5-.3.7-.5.2-.3.4-.6.5-1l-3.2-8.3h1.4l1.6,4.3c0,.2.2.4.3.7s.2.6.3.9c0,.3.2.6.2.8h0c0-.2,0-.4.2-.6,0-.2.1-.4.2-.7,0-.2.1-.4.2-.6,0-.2.1-.4.2-.5l1.4-4.3h1.4l-2.8,8c-.2.4-.3.9-.5,1.2s-.4.7-.6,1-.5.5-.8.6c-.3.2-.7.2-1.1.2Z"/>
        <path d="M246.6,82.7l-4-10.8h1.6l2.8,7.6c0,.1.1.3.2.5s.1.4.2.5c0,.2.1.3.2.5h0c0-.1,0-.3.2-.5s.1-.4.2-.5c0-.2.1-.4.2-.5l2.7-7.6h1.6l-4,10.8h-1.8Z"/>
        <path d="M256.4,82.9c-.8,0-1.5-.2-2.1-.5-.6-.3-1-.8-1.3-1.4-.3-.6-.4-1.4-.4-2.4s.1-1.8.4-2.4c.3-.6.7-1.1,1.3-1.4.6-.3,1.3-.5,2.1-.5s1.5.2,2.1.5c.6.3,1,.8,1.3,1.4.3.6.4,1.4.4,2.4s-.1,1.8-.4,2.4c-.3.6-.7,1.1-1.3,1.4-.6.3-1.3.5-2.1.5ZM256.4,81.7c.5,0,1-.1,1.3-.3s.6-.5.8-1,.3-1,.3-1.7v-.3c0-.7,0-1.3-.3-1.7-.2-.4-.5-.8-.8-1-.4-.2-.8-.3-1.3-.3s-1,.1-1.3.3c-.4.2-.6.5-.8,1-.2.4-.3,1-.3,1.7v.3c0,.7,0,1.2.3,1.7s.4.8.8,1c.4.2.8.3,1.3.3Z"/>
        <path d="M261.9,82.7v-8.3h1.1v1.2h.2c.2-.3.5-.6.7-.8.3-.2.6-.4.9-.5.3,0,.7-.1,1.1-.1s1,0,1.4.3c.4.2.7.5.9.9.2.4.3.9.3,1.6v5.7h-1.4v-5.5c0-.3,0-.6-.1-.8s-.2-.4-.4-.5c-.2-.1-.3-.2-.5-.3-.2,0-.5,0-.7,0-.4,0-.8,0-1.1.3-.3.2-.6.5-.8.8-.2.4-.3.8-.3,1.3v4.8h-1.4Z"/>
        <path d="M272.7,82.9c-.4,0-.8,0-1-.2-.2-.2-.4-.4-.5-.6-.1-.3-.2-.6-.2-.9v-5.5h-1.1v-1.2h1.1l.3-2.3h1.1v2.3h1.6v1.2h-1.6v5.3c0,.3,0,.5.1.6,0,.1.3.2.5.2h.9v.9c-.1,0-.2,0-.4.1-.1,0-.3,0-.4,0-.2,0-.3,0-.4,0Z"/>
        <path d="M275.4,72.9v-1.5h1.4v1.5h-1.4ZM275.4,82.7v-8.3h1.4v8.3h-1.4Z"/>
        <path d="M282.3,82.9c-.8,0-1.5-.2-2.1-.5-.6-.3-1-.8-1.3-1.4-.3-.6-.4-1.4-.4-2.4s.1-1.8.4-2.4c.3-.6.7-1.1,1.3-1.4.6-.3,1.3-.5,2.1-.5s1.4.1,1.9.4c.5.3.9.7,1.2,1.3.3.6.4,1.3.4,2.2v.7h-5.9c0,.7.1,1.2.3,1.6.2.4.4.7.8.9.3.2.8.3,1.3.3s.7,0,.9-.1c.3,0,.5-.2.7-.4.2-.2.3-.4.4-.6,0-.2.1-.5.2-.8h1.3c0,.4,0,.8-.3,1.2-.2.4-.4.7-.7.9-.3.3-.7.5-1.1.6-.4.1-.9.2-1.5.2ZM280,77.9h4.5c0-.5,0-.8-.2-1.2-.1-.3-.3-.6-.4-.8s-.4-.3-.7-.4-.5-.1-.9-.1c-.5,0-.9,0-1.2.3-.3.2-.6.4-.8.8-.2.4-.3.8-.3,1.4Z"/>
        <path d="M287.6,82.7v-8.3h1.1v1.4h.2c0-.3.2-.5.3-.7.1-.2.3-.4.6-.6.3-.2.6-.2.9-.2s.3,0,.4,0c.1,0,.2,0,.3,0v1.3h-.5c-.4,0-.7,0-.9.2-.3.1-.5.3-.6.5-.2.2-.3.5-.4.8,0,.3-.1.6-.1,1v4.6h-1.4Z"/>
      </g>
    </g>
  </g>
  <g id="Safe-Area" class="st5">
    <g>
      <path class="st0" d="M242.6,107.2c-3.1,1.3-6.4,2.2-9.8,2.2-8.1,0-13.1-4.7-13.1-11.8s4.7-12,14-12,4.9.4,7.4,1.2v5.1c-1-.6-3.3-2-6.7-2-5.1,0-8.6,3.2-8.6,7.7s2.7,7.8,7.9,7.8,2.7-.4,3.4-.7v-4.3c0,0-5.3,0-5.3,0l2.3-4.1h8.6v10.9Z"/>
      <path class="st0" d="M40.3-2.2c-3.1,1.3-6.4,2.2-9.8,2.2-8.1,0-13.1-4.7-13.1-11.8s4.7-12,14-12,4.9.4,7.4,1.2v5.1c-1-.6-3.3-2-6.7-2-5.1,0-8.6,3.2-8.6,7.7s2.7,7.8,7.9,7.8,2.7-.4,3.4-.7v-4.3c0,0-5.3,0-5.3,0l2.3-4.1h8.6V-2.2Z"/>
      <path class="st0" d="M-2.2,28.2C-.8,31.3,0,34.6,0,38,0,46-4.7,51.1-11.8,51.1s-12-4.7-12-14,.4-4.9,1.2-7.4h5.1c-.6,1-2,3.3-2,6.7,0,5.1,3.2,8.6,7.7,8.6s7.8-2.7,7.8-7.9-.4-2.7-.7-3.4h-4.3c0,0,0,5.3,0,5.3l-4.1-2.3v-8.6H-2.2Z"/>
      <path class="st0" d="M319.6,29.6c1.3,3.1,2.2,6.4,2.2,9.8,0,8.1-4.7,13.1-11.8,13.1s-12-4.7-12-14,.4-4.9,1.2-7.4h5.1c-.6,1-2,3.3-2,6.7,0,5.1,3.2,8.6,7.7,8.6s7.8-2.7,7.8-7.9-.4-2.7-.7-3.4h-4.3c0,0,0,5.3,0,5.3l-4.1-2.3v-8.6h10.9Z"/>
    </g>
  </g>
</svg>