<?xml version="1.0" encoding="UTF-8"?>
<svg id="Livello_1_Immagine" data-name="Livello 1 Immagine" xmlns="http://www.w3.org/2000/svg" viewBox="0 0 689.76 339.84">
  <defs>
    <style>
      .cls-1 {
        fill: #d51224;
      }
    </style>
  </defs>
  <path d="M0,339.84c.0399-.5136,.1146-1.0272,.1148-1.5408,.0059-19.8386,.005-39.6772,.005-59.5158,0-.5117,0-1.0235,0-1.7036H334.0039c117.9518,0,235.9036,.0002,353.8553-.005,.6336,0,1.2672-.0749,1.9008-.1148v62.88H0Z"/>
  <path d="M689.76,253.68c-.519-.0138-1.038-.0396-1.5571-.0397-19.795-.0021-39.59-.0017-59.3851-.0017h-1.6388V0h62.5809V253.68Z"/>
  <path d="M446.7604,173.1395h62.7588v5.6465c0,1.3599-.0004,2.7197,.0001,4.0796,.0017,4.6011,3.2367,8.0393,7.8242,8.1141,5.1981,.0847,10.4001,.093,15.5978-.0031,4.6252-.0855,7.8155-3.483,7.8191-8.108,.0042-5.4795,.0034-10.959,.0002-16.4385-.0028-4.8241-3.2773-8.129-8.1296-8.1445-7.1593-.0229-14.3187-.0061-21.478-.0061-10.959,0-21.918,.0005-32.877-.0001-14.5144-.0009-26.9122-9.5275-30.5146-23.6013-.618-2.4142-.9547-4.9698-.9596-7.4609-.0626-32.0369-.0537-64.0741-.0363-96.1111,.0087-15.974,12.6496-29.6396,28.5362-30.8991,1.3127-.1041,2.633-.1586,3.9497-.1589,30.9971-.0087,61.9944-.0077,92.9915-.0063,16.118,.0007,29.6503,12.3381,31.1595,28.4154,.097,1.0326,.1492,2.0734,.1498,3.1104,.0094,15.3986,.0064,30.7972,.0064,46.1958v1.3631h-62.7973c0-2.6406-.1372-5.2381,.0296-7.816,.3101-4.792-3.5645-8.7082-8.5401-8.5132-4.8321,.1894-9.6775,.0385-14.517,.0419-4.9289,.0034-8.214,3.2724-8.2146,8.1688-.0007,5.4795-.0014,10.959,.0002,16.4385,.0013,4.7023,3.3629,8.0677,8.1013,8.0711,12.8388,.0093,25.6777,.0032,38.5165,.0032,5.5195,0,11.039-.0048,16.5585,.0009,14.9722,.0154,28.3654,11.6446,30.4348,26.4712,.2643,1.8931,.409,3.8192,.4105,5.7302,.0247,31.5171,.0185,63.0342,.0172,94.5514-.0006,15.557-11.2475,28.7182-26.6102,31.089-1.6125,.2489-3.2643,.3399-4.8979,.3409-31.2772,.0195-62.5543,.02-93.8314,.012-16.1008-.0041-29.48-11.9331-31.2865-27.8853-.1212-1.0701-.1643-2.1543-.165-3.232-.0102-15.9986-.007-31.9971-.007-47.9956v-1.4641Z"/>
  <path class="cls-1" d="M360.5131,.1646h62.6604V1.6572c0,73.7943,.0047,147.5887-.004,221.383-.0017,14.6012-11.4342,27.9587-25.7951,30.1326-2.0457,.3097-4.1331,.4805-6.2015,.4825-30.9176,.03-61.8352,.0209-92.7529,.0206-15.7454-.0002-28.2719-10.2191-31.3599-25.6674-.3889-1.9458-.5522-3.9684-.5529-5.9555-.0272-73.5143-.0202-147.0287-.0479-220.543-.0004-1.1672,.3307-1.4523,1.4716-1.4504,19.8784,.0342,39.7569,.0246,59.6354,.0248q1.6283,0,1.6293,1.6027c.0002,60.2354,.0057,120.4707-.0144,180.7061-.0011,3.3672,1.1471,6.0696,4.1831,7.6333,1.1953,.6156,2.6615,.9428,4.014,.973,4.9971,.1117,9.9983,.0637,14.9978,.0388,4.7868-.0237,8.1367-3.4126,8.1368-8.1804,.0004-60.3154,.0002-120.6307,.0002-180.9461V.1646Z"/>
  <path d="M62.698,173.1596v80.4764H.2054V.0415H1.5927c41.3572,0,82.7145-.0042,124.0717,.0022,15.5312,.0024,29.078,12.0523,30.8405,27.4292,.1589,1.3865,.2432,2.7896,.2437,4.1851,.013,36.5976,.0104,73.1951,.0102,109.7927,0,15.6605-10.7138,28.5171-26.11,31.2447-1.8779,.3327-3.8172,.4423-5.7283,.4452-20.1586,.0309-40.3173,.0192-60.4759,.0192h-1.7467Zm.0474-62.8126c.4479,.0197,.837,.0515,1.226,.0516,7.3147,.003,14.6294,.0086,21.9441-.0001,4.6825-.0056,8.1134-3.4054,8.1206-8.0836,.0159-10.4724,.0143-20.9448,.0008-31.4172-.006-4.6913-3.4072-8.0528-8.1196-8.0574-7.3147-.007-14.6294-.0027-21.9441,.0004-.3887,.0002-.7774,.0336-1.2277,.0544v47.4518Z"/>
  <path d="M180.3122,.1026h62.6054V253.6675h-62.6054V.1026Z"/>
</svg>